<mxfile host="app.diagrams.net" agent="Mozilla/5.0 (Windows NT 10.0; Win64; x64) AppleWebKit/537.36 (KHTML, like Gecko) Chrome/138.0.0.0 Safari/537.36 Edg/138.0.0.0" version="27.1.6">
  <diagram name="PÃ¡gina-1" id="jKYM1HGOOGCjrInamc6_">
    <mxGraphModel dx="1418" dy="802" grid="1" gridSize="10" guides="1" tooltips="1" connect="1" arrows="1" fold="1" page="1" pageScale="1" pageWidth="827" pageHeight="1169" math="0" shadow="0">
      <root>
        <mxCell id="0" />
        <mxCell id="1" parent="0" />
        <mxCell id="4nxTO_ml26OoCs9oKQIT-8" style="edgeStyle=orthogonalEdgeStyle;rounded=0;orthogonalLoop=1;jettySize=auto;html=1;entryX=0.5;entryY=0;entryDx=0;entryDy=0;" edge="1" parent="1" source="4nxTO_ml26OoCs9oKQIT-1" target="4nxTO_ml26OoCs9oKQIT-3">
          <mxGeometry relative="1" as="geometry" />
        </mxCell>
        <mxCell id="4nxTO_ml26OoCs9oKQIT-9" style="edgeStyle=orthogonalEdgeStyle;rounded=0;orthogonalLoop=1;jettySize=auto;html=1;entryX=0;entryY=0.5;entryDx=0;entryDy=0;" edge="1" parent="1" source="4nxTO_ml26OoCs9oKQIT-1" target="4nxTO_ml26OoCs9oKQIT-4">
          <mxGeometry relative="1" as="geometry" />
        </mxCell>
        <mxCell id="4nxTO_ml26OoCs9oKQIT-10" style="edgeStyle=orthogonalEdgeStyle;rounded=0;orthogonalLoop=1;jettySize=auto;html=1;entryX=1;entryY=0.5;entryDx=0;entryDy=0;" edge="1" parent="1" source="4nxTO_ml26OoCs9oKQIT-1" target="4nxTO_ml26OoCs9oKQIT-5">
          <mxGeometry relative="1" as="geometry" />
        </mxCell>
        <mxCell id="4nxTO_ml26OoCs9oKQIT-1" value="BLL" style="rounded=0;whiteSpace=wrap;html=1;" vertex="1" parent="1">
          <mxGeometry x="360" y="555" width="120" height="60" as="geometry" />
        </mxCell>
        <mxCell id="4nxTO_ml26OoCs9oKQIT-6" style="edgeStyle=orthogonalEdgeStyle;rounded=0;orthogonalLoop=1;jettySize=auto;html=1;entryX=0.5;entryY=0;entryDx=0;entryDy=0;" edge="1" parent="1" source="4nxTO_ml26OoCs9oKQIT-2" target="4nxTO_ml26OoCs9oKQIT-1">
          <mxGeometry relative="1" as="geometry" />
        </mxCell>
        <mxCell id="4nxTO_ml26OoCs9oKQIT-13" style="edgeStyle=orthogonalEdgeStyle;rounded=0;orthogonalLoop=1;jettySize=auto;html=1;entryX=0.5;entryY=0;entryDx=0;entryDy=0;" edge="1" parent="1" source="4nxTO_ml26OoCs9oKQIT-2" target="4nxTO_ml26OoCs9oKQIT-4">
          <mxGeometry relative="1" as="geometry" />
        </mxCell>
        <mxCell id="4nxTO_ml26OoCs9oKQIT-14" style="edgeStyle=orthogonalEdgeStyle;rounded=0;orthogonalLoop=1;jettySize=auto;html=1;entryX=0.5;entryY=0;entryDx=0;entryDy=0;" edge="1" parent="1" source="4nxTO_ml26OoCs9oKQIT-2" target="4nxTO_ml26OoCs9oKQIT-5">
          <mxGeometry relative="1" as="geometry" />
        </mxCell>
        <mxCell id="4nxTO_ml26OoCs9oKQIT-2" value="GUI" style="rounded=0;whiteSpace=wrap;html=1;" vertex="1" parent="1">
          <mxGeometry x="360" y="420" width="120" height="60" as="geometry" />
        </mxCell>
        <mxCell id="4nxTO_ml26OoCs9oKQIT-12" style="edgeStyle=orthogonalEdgeStyle;rounded=0;orthogonalLoop=1;jettySize=auto;html=1;entryX=0.5;entryY=1;entryDx=0;entryDy=0;" edge="1" parent="1" source="4nxTO_ml26OoCs9oKQIT-3" target="4nxTO_ml26OoCs9oKQIT-5">
          <mxGeometry relative="1" as="geometry" />
        </mxCell>
        <mxCell id="4nxTO_ml26OoCs9oKQIT-3" value="DAL" style="rounded=0;whiteSpace=wrap;html=1;" vertex="1" parent="1">
          <mxGeometry x="360" y="690" width="120" height="60" as="geometry" />
        </mxCell>
        <mxCell id="4nxTO_ml26OoCs9oKQIT-11" style="edgeStyle=orthogonalEdgeStyle;rounded=0;orthogonalLoop=1;jettySize=auto;html=1;entryX=1;entryY=0.5;entryDx=0;entryDy=0;" edge="1" parent="1" source="4nxTO_ml26OoCs9oKQIT-4" target="4nxTO_ml26OoCs9oKQIT-3">
          <mxGeometry relative="1" as="geometry">
            <Array as="points">
              <mxPoint x="620" y="720" />
            </Array>
          </mxGeometry>
        </mxCell>
        <mxCell id="4nxTO_ml26OoCs9oKQIT-15" style="edgeStyle=orthogonalEdgeStyle;rounded=0;orthogonalLoop=1;jettySize=auto;html=1;entryX=0;entryY=0.5;entryDx=0;entryDy=0;" edge="1" parent="1" source="4nxTO_ml26OoCs9oKQIT-4" target="4nxTO_ml26OoCs9oKQIT-5">
          <mxGeometry relative="1" as="geometry">
            <Array as="points">
              <mxPoint x="720" y="585" />
              <mxPoint x="720" y="360" />
              <mxPoint x="120" y="360" />
              <mxPoint x="120" y="585" />
            </Array>
          </mxGeometry>
        </mxCell>
        <mxCell id="4nxTO_ml26OoCs9oKQIT-4" value="SERVICIOS" style="rounded=0;whiteSpace=wrap;html=1;" vertex="1" parent="1">
          <mxGeometry x="560" y="555" width="120" height="60" as="geometry" />
        </mxCell>
        <mxCell id="4nxTO_ml26OoCs9oKQIT-5" value="ENTIDADES" style="rounded=0;whiteSpace=wrap;html=1;" vertex="1" parent="1">
          <mxGeometry x="160" y="555" width="120" height="60" as="geometry" />
        </mxCell>
      </root>
    </mxGraphModel>
  </diagram>
</mxfile>
